<svg id="Layer_1" data-name="Layer 1" xmlns="http://www.w3.org/2000/svg" viewBox="0 0 1812.63 481.83"><defs><style>.cls-1{fill:#272361;}</style></defs><title>ISOLOGO AZUL</title><path class="cls-1" d="M1298,491.82a52.12,52.12,0,0,1-.59-13.75s.19-3.17-4.78-8.14-11.73-14.88-8.26-32.36c0,0,3.37-8.39.78-11.5s-10-9.83-13.83-32.11-5.13-21.36-6.58-27.12c0,0-.46-3.66-2,0s-6.77,15.65-6.77,15.65-4.16,22.05-6.1,26.4-5.78,17-2.59,26.14-.48,22.34-5.07,28.41l-7.61,10s-1.26,9.69-2.75,15.65a55,55,0,0,0-1.5,11.85L1229,509a6.74,6.74,0,0,1-.11,2.29h70.45a11.59,11.59,0,0,1-1.16-4.54C1298.18,503.32,1299.3,498.69,1298,491.82ZM941.34,272.18l-25.72,49.15h60l-30-57.34Zm280.32,105.28c3.43-12.81,3.74-17,2-20s-15.62-26.93-14.72-42c0,0,.92-9.42,2.75-15.09s.88-19.67-1.23-24-12.32-24.45-10-35.8,5.27-26.26,12.15-25.83a34.58,34.58,0,0,1,11.39,2.55s16.59,4,19.72,4,3.58-1.94,5.3-14.79c0,0-1.13-8-2.28-12.81s-3.67-17.22-.41-20.85,7-5.29,10.09-5.29,5.42-.78,6.64.93,5.59,7.82,4.39,14.88a123.08,123.08,0,0,1-3,13.44c-.31,1-4.58,17.77-4.46,21s.88,3.45.88,3.45l7.77-.68s2.64-11.64,12.68-17.19c5.63-3.11,7.44-4.09,7.94-4.36.29-.78,8.27-22,15.15-29.38,0,0,.93-.23.93-3.62s-5.28-38.65-8.91-42.29c0,0-2.38-.11-3.53-.18s-11.48,1-11.93-6.54.72-8.91,2.21-10.2,2.49.94,2.49.94l1.34,5.67,8.46-.71,1.85-.63s.11-5.9-1.71-9.44a33.36,33.36,0,0,0-4-6.26c-.46-.46-2.18-1.33-1.42-4.72a13.08,13.08,0,0,1,.77-2.36H1157.18V59.42H54V541.25H1157.18V511.33h37.41a10.39,10.39,0,0,1,2.2-2.92,23.38,23.38,0,0,1,7.47-4.94s9.51-1,10-4,.45-18.68,2.85-33,6.42-22.86,6.42-22.86,3.24-20.14,2.24-24.65S1218.23,390.27,1221.66,377.46Zm-787.75-6.67H404.2v-96l-47.54,90.89a10.87,10.87,0,0,1-9.18,5.06H319.7l-50.19-96v96H239.8V249.14a10.91,10.91,0,0,1,10.91-10.9h34L336.86,338,389,238.24h44.87Zm119.91-10.91a10.9,10.9,0,0,1-10.9,10.91H446.54V300.3a10.91,10.91,0,0,1,10.9-10.91h96.38ZM680,370.79H575.33a10.91,10.91,0,0,1-10.91-10.91V300.3a10.92,10.92,0,0,1,10.91-10.91h62.43V313.3H594.13v33.58h56.16V238.24H680Zm120.24,0H703.85A10.9,10.9,0,0,1,693,359.88V289.39h29.7v57.49h47.87V289.39h29.71Zm42.84,0H813.36V238.24h29.71Zm158.42,0-16.33-31.21H906.08l-16.33,31.21H855.44l66.72-127.55a10.87,10.87,0,0,1,9.14-5h34.4L1035,370.79Zm129-57.49h-55.64v57.49h-29.71V300.3a10.91,10.91,0,0,1,10.91-10.91h74.44Zm121.85-14.14a7.3,7.3,0,1,0,7.3-7.3A7.29,7.29,0,0,0,1252.34,299.16Zm-25.24-33.29-.11-.34-1.15,34c-1.46,9.26,0,13.64,3.58,23.88a73.28,73.28,0,0,1,4.07,17.05s5.19-10.88,7.79-15.75.56-9.22-.48-13.65-2-4.33-4.23-14.29C1234.46,287.5,1228,268.62,1227.1,265.87Zm133-206.45V89.34h-59.08L1302.7,91s6.77,9.08,7.93,12.44,3.73,10,3.73,10l-4.48,17s11.61,23.91,13.65,32.21c0,0,2.22,6.29.69,9.62s-16.62,38-25.18,46.55c0,0-2.83,12.85-5.22,20.9s-4.53,20.82-6.08,28.83-13.12,34.4-4.91,50.79,10,19.11,12.89,28.52,4.42,11.79,6,16.05,5.28,15.26,2.28,34.94-.68,29.81.57,33.95,6.92,22.38,6.81,34.62-1.48,27.1,3.87,33.75c4.24,5.26,6.91,7.89,7.84,10.1h37.09v29.92h506.5V59.42ZM1495.34,360a10.9,10.9,0,0,1-10.9,10.9h-98V346.88h79.16v-7.3h-79.31V300.3a10.91,10.91,0,0,1,10.91-10.91h97.54V313.3H1416v8h79.3Zm99.85-46.74h-55.64v57.49h-29.71V300.3a10.91,10.91,0,0,1,10.91-10.91h74.44Zm46.15,57.49h-29.7V238.24h29.7ZM1289.26,199.06s0,0,0,0S1289.66,198.85,1289.26,199.06ZM524.12,313.3H476.24v33.58h47.88Z" transform="translate(-54 -59.42)"/></svg>